<svg xmlns="http://www.w3.org/2000/svg" viewBox="0 0 32 32" fill="none">
  <!-- Background rounded square -->
  <rect width="32" height="32" rx="7" fill="#5b50e0"/>
  <!-- Building2 icon (lucide), centered and scaled, white strokes -->
  <g transform="translate(4, 4) scale(1)">
    <path d="M6 22V4a2 2 0 0 1 2-2h8a2 2 0 0 1 2 2v18Z" stroke="white" stroke-width="1.8" stroke-linecap="round" stroke-linejoin="round"/>
    <path d="M6 12H4a2 2 0 0 0-2 2v6a2 2 0 0 0 2 2h2" stroke="white" stroke-width="1.8" stroke-linecap="round" stroke-linejoin="round"/>
    <path d="M18 9h2a2 2 0 0 1 2 2v9a2 2 0 0 1-2 2h-2" stroke="white" stroke-width="1.8" stroke-linecap="round" stroke-linejoin="round"/>
    <path d="M10 6h4" stroke="white" stroke-width="1.8" stroke-linecap="round"/>
    <path d="M10 10h4" stroke="white" stroke-width="1.8" stroke-linecap="round"/>
    <path d="M10 14h4" stroke="white" stroke-width="1.8" stroke-linecap="round"/>
    <path d="M10 18h4" stroke="white" stroke-width="1.8" stroke-linecap="round"/>
  </g>
</svg>
